<svg width="122" height="30" viewBox="0 0 122 30" fill="none" xmlns="http://www.w3.org/2000/svg">
<path d="M37.6369 4.02128C37.6369 4.92272 37.3719 5.64055 36.8413 6.17604C36.2385 6.81278 35.453 7.13139 34.4873 7.13139C33.5624 7.13139 32.7761 6.80862 32.1295 6.16216C31.4817 5.51618 31.1584 4.71513 31.1584 3.75939C31.1584 2.80322 31.4817 2.00265 32.1295 1.35614C32.7761 0.710217 33.5624 0.386963 34.4873 0.386963C34.9462 0.386963 35.3855 0.477387 35.8026 0.657703C36.2197 0.838454 36.5543 1.07839 36.8046 1.37887L36.2414 1.94666C35.8172 1.43603 35.2332 1.1809 34.4873 1.1809C33.8128 1.1809 33.2296 1.41968 32.7374 1.89753C32.2451 2.37586 31.999 2.99616 31.999 3.75939C31.999 4.52268 32.2451 5.14293 32.7374 5.6213C33.2296 6.09915 33.8128 6.33788 34.4873 6.33788C35.2028 6.33788 35.7993 6.09784 36.2769 5.6171C36.5869 5.3039 36.7662 4.86856 36.8141 4.30953H34.4872V3.53411H37.5922C37.6222 3.70272 37.6368 3.86452 37.6368 4.02128" fill="white"/>
<path d="M37.636 4.02121H37.5292C37.5283 4.90209 37.2729 5.58627 36.7648 6.09989L36.7637 6.10076L36.7632 6.10163C36.1796 6.71642 35.4295 7.02241 34.4863 7.02372C33.5862 7.02241 32.8327 6.71308 32.2036 6.08602C31.5759 5.45769 31.2655 4.69063 31.2643 3.75932C31.2655 2.82756 31.5759 2.06094 32.2036 1.43305C32.8327 0.805547 33.5862 0.495784 34.4863 0.494478C34.9314 0.494478 35.3553 0.582001 35.7595 0.756369C36.1641 0.932092 36.4837 1.16236 36.7219 1.44823L36.8036 1.3788L36.7282 1.30273L36.165 1.8709L36.2404 1.94658L36.3227 1.87772C35.8787 1.3418 35.2556 1.07164 34.4863 1.07324C33.7868 1.07237 33.1715 1.3242 32.6625 1.82018C32.1486 2.31775 31.8904 2.97297 31.8913 3.75932C31.8904 4.54571 32.1486 5.20088 32.6625 5.6985C33.1715 6.19448 33.7868 6.44626 34.4863 6.44539C35.2255 6.4467 35.8555 6.19404 36.3514 5.69308C36.6826 5.35846 36.8704 4.89498 36.9196 4.31869L36.9296 4.20186H34.5931V3.64162H37.5913V3.53403L37.4861 3.55294C37.5153 3.71609 37.5291 3.87111 37.5291 4.02121H37.7427C37.7427 3.85767 37.7276 3.68959 37.6964 3.51478L37.6805 3.42644H34.3796V4.41704H36.8132V4.30945L36.7069 4.30021C36.6598 4.8416 36.4887 5.24928 36.2004 5.54101C35.7416 6.00159 35.1784 6.2289 34.4863 6.23021C33.8369 6.22934 33.2858 6.00405 32.8107 5.54386C32.3401 5.08531 32.1061 4.49987 32.1049 3.75932C32.1061 3.01876 32.3401 2.43332 32.8107 1.97477C33.2858 1.51458 33.8368 1.28929 34.4863 1.28842C35.2085 1.29016 35.7537 1.53053 36.1588 2.01597L36.2339 2.10591L36.8792 1.45491L36.9484 1.38518L36.8854 1.30984C36.623 0.994711 36.2735 0.744571 35.8438 0.558887C35.4133 0.372624 34.959 0.279298 34.4863 0.279298C33.5369 0.278476 32.7176 0.614689 32.0531 1.28005C31.3861 1.94411 31.0499 2.77882 31.0508 3.75932C31.0499 4.73938 31.3861 5.57456 32.0535 6.23901C32.7176 6.90394 33.5369 7.23977 34.4863 7.2389C35.475 7.23977 36.2952 6.90892 36.9176 6.25033L36.8403 6.17596L36.9158 6.25207C37.469 5.69516 37.7435 4.94285 37.7427 4.02121H37.6359H37.636ZM42.5583 1.32459H39.6403V3.37146H42.2718V4.14717H39.6403V6.19404H42.5583V6.98711H38.8177V0.531519H42.5583V1.32459" fill="white"/>
<path d="M42.5595 1.32449V1.2169H39.5348V3.47895H42.1662V4.0392L39.5347 4.03949V6.30154H42.4527V6.87943H38.9257V0.639008H42.4527V1.32449H42.5595V1.2169V1.32449H42.6663V0.423828H38.7122V7.09461H42.6663V6.08636H39.7483V4.25467H42.3798V3.26377H39.7483V1.43208H42.6663V1.32449H42.5595V1.32449ZM46.0315 6.98707H45.2076V1.32444H43.418V0.53137H47.8211V1.32444H46.0315V6.98697" fill="white"/>
<path d="M46.0317 6.98707V6.87943H45.3146V1.2169H43.525V0.639057H47.7145V1.2169H45.9249V6.98702H46.0317V6.87943V6.98702H46.1385V1.43208H47.9281V0.423828H43.3114V1.43203H45.101V7.09457H46.1385V6.98698H46.0317V6.98707ZM51.0071 6.98707V0.53137H51.8301V6.98698H51.0071" fill="white"/>
<path d="M51.0106 6.98707H51.1174V0.639008H51.7268V6.87943H51.0106V6.98702H51.1174H51.0106V7.09461H51.9404V0.423828H50.9038V7.09461H51.0106V6.98702V6.98707ZM55.4858 6.98707H54.6619V1.32444H52.8724V0.53137H57.2754V1.32444H55.4858V6.98697" fill="white"/>
<path d="M55.4843 6.98724V6.8796H54.7672V1.21707H52.9777V0.639231H57.1672V1.21707H55.3776V6.98719H55.4843V6.8796V6.98719H55.5912V1.43225H57.3807V0.424002H52.7642V1.43221H54.5537V7.09473H55.5912V6.98714H55.4843V6.98724ZM61.5189 5.6125C61.9932 6.0962 62.5735 6.33783 63.2597 6.33783C63.946 6.33783 64.5266 6.0962 65.0001 5.6125C65.4748 5.12876 65.7126 4.5104 65.7126 3.75939C65.7126 3.00844 65.4748 2.39007 65.0001 1.90633C64.5266 1.42258 63.946 1.1809 63.2597 1.1809C62.5735 1.1809 61.9932 1.42258 61.5189 1.90633C61.0454 2.39007 60.8077 3.00839 60.8077 3.75939C60.8077 4.5104 61.0454 5.12876 61.5189 5.6125ZM65.6091 6.15292C64.9792 6.80557 64.1958 7.13139 63.2597 7.13139C62.3228 7.13139 61.5397 6.80557 60.9112 6.15292C60.2808 5.501 59.9671 4.70299 59.9671 3.75939C59.9671 2.81579 60.2808 2.01764 60.9112 1.36586C61.5398 0.713069 62.3228 0.386963 63.2597 0.386963C64.1909 0.386963 64.9721 0.71481 65.605 1.37007C66.237 2.02528 66.5532 2.82169 66.5532 3.75939C66.5532 4.70299 66.2377 5.501 65.6091 6.15292Z" fill="white"/>
<path d="M61.5155 5.61243L61.4396 5.68806C61.9315 6.19114 62.5451 6.4467 63.2563 6.44539C63.9671 6.4467 64.5816 6.19114 65.0726 5.68806C65.5677 5.18449 65.8168 4.53305 65.816 3.75932C65.8167 2.98564 65.5677 2.33415 65.0726 1.83058C64.5816 1.32749 63.9671 1.07198 63.2563 1.07324C62.5451 1.07198 61.9315 1.32749 61.4396 1.83058C60.9457 2.33415 60.6962 2.98564 60.6975 3.75932C60.6962 4.533 60.9457 5.18449 61.4396 5.68806L61.5155 5.61243L61.5915 5.53675C61.1385 5.0723 60.9119 4.48808 60.9111 3.75932C60.9119 3.03061 61.1385 2.44638 61.5914 1.98188C62.0486 1.51753 62.5947 1.28973 63.2563 1.28847C63.9175 1.28973 64.4648 1.51753 64.9208 1.98188C65.3746 2.44638 65.6012 3.03061 65.602 3.75932C65.6012 4.48803 65.3746 5.0723 64.9208 5.53675C64.4648 6.00116 63.9175 6.22891 63.2563 6.23017C62.5947 6.22891 62.0486 6.00116 61.5914 5.53675L61.5155 5.61243ZM65.6057 6.15285L65.5294 6.07809C64.917 6.71019 64.1682 7.02246 63.2563 7.02372C62.344 7.02242 61.5952 6.71019 60.984 6.07809L60.9811 6.07471L60.984 6.07809C60.3729 5.44382 60.0714 4.67894 60.0705 3.75932C60.0714 2.8397 60.3729 2.07482 60.984 1.4406C61.5952 0.808449 62.344 0.495786 63.2563 0.494528C64.1623 0.495786 64.9094 0.809755 65.5252 1.44519C66.1384 2.08236 66.4417 2.84604 66.443 3.75932C66.4417 4.67894 66.1393 5.44382 65.5294 6.07809L65.6057 6.15285L65.6825 6.2276C66.3299 5.55774 66.6573 4.72681 66.6566 3.75932C66.6574 2.79734 66.3286 1.9681 65.6783 1.29524C65.0276 0.619719 64.2124 0.278139 63.2563 0.2793C62.2952 0.278139 61.4776 0.618124 60.831 1.29103V1.29055C60.1823 1.9609 59.8561 2.79183 59.8569 3.75932C59.8561 4.72681 60.1823 5.55774 60.831 6.22804L60.8339 6.23108L60.831 6.2276C61.4776 6.90051 62.2952 7.23977 63.2563 7.2389C64.217 7.23977 65.0346 6.90051 65.6825 6.2276L65.6057 6.15285V6.15285ZM67.7052 6.98717V0.531471H68.7073L71.8213 5.55348H71.8568L71.8213 4.30941V0.531471H72.6453V6.98707H71.7859L68.5279 1.72168H68.4924L68.5279 2.9662V6.98707H67.7053" fill="white"/>
<path d="M67.7101 6.98707H67.817V0.639008H68.6529L71.767 5.66102H71.9714L71.933 4.30776V0.639057H72.5433V6.87943H71.85L68.5921 1.61404H68.3877L68.426 2.96789V6.87943H67.7102V6.98702H67.817H67.7102V7.09461H68.6396V2.96445L68.6041 1.71873L68.4973 1.72163V1.82922H68.5328V1.72163L68.4422 1.77883L71.7315 7.09461H72.7569V0.423828H71.7195V4.31061L71.7549 5.55634L71.8617 5.55343V5.44584H71.8262V5.55343L71.9168 5.49633L68.7713 0.423828H67.6034V7.09461H67.7102V6.98702L67.7101 6.98707ZM101.201 25.2779H103.193V11.8275H101.201L101.201 25.2779ZM119.149 16.6726L116.865 22.5041H116.796L114.426 16.6726H112.279L115.834 24.8231L113.807 29.3568H115.887L121.365 16.6726L119.149 16.6726ZM107.848 23.7502C107.195 23.7502 106.285 23.4215 106.285 22.6079C106.285 21.5697 107.419 21.1717 108.397 21.1717C109.274 21.1717 109.685 21.3621 110.218 21.6219C110.063 22.8676 108.999 23.7502 107.848 23.7502V23.7502ZM108.089 16.3784C106.646 16.3784 105.152 17.0188 104.534 18.4378L106.302 19.1817C106.68 18.4378 107.384 18.1952 108.123 18.1952C109.153 18.1952 110.201 18.8185 110.218 19.926V20.0643C109.857 19.8566 109.085 19.5452 108.14 19.5452C106.234 19.5452 104.292 20.6005 104.292 22.5734C104.292 24.3731 105.856 25.5326 107.607 25.5326C108.947 25.5326 109.685 24.927 110.15 24.2176H110.218V25.2557H112.141V20.0987C112.141 17.7111 110.373 16.3784 108.089 16.3784V16.3784ZM95.7735 18.3099H92.9393V13.6995H95.7735C97.2633 13.6995 98.109 14.9422 98.109 16.0047C98.109 17.047 97.2632 18.3099 95.7735 18.3099ZM95.7222 11.8275H90.9476V25.2779H92.9392V20.182H95.7222C97.9307 20.182 100.102 18.571 100.102 16.0047C100.102 13.4385 97.9307 11.8275 95.7222 11.8275V11.8275ZM69.6854 23.7527C68.3087 23.7527 67.1561 22.5915 67.1561 20.9965C67.1561 19.3847 68.3087 18.2058 69.6854 18.2058C71.0445 18.2058 72.1111 19.3847 72.1111 20.9965C72.1111 22.5915 71.0445 23.7527 69.6854 23.7527H69.6854ZM71.9735 17.4258H71.9046C71.4575 16.8885 70.5968 16.4032 69.5131 16.4032C67.2421 16.4032 65.1605 18.4138 65.1605 20.9965C65.1605 23.5619 67.2421 25.5553 69.5131 25.5553C70.5968 25.5553 71.4575 25.0698 71.9046 24.5155H71.9735V25.1741C71.9735 26.9251 71.0445 27.861 69.5477 27.861C68.3262 27.861 67.5692 26.9767 67.2592 26.2315L65.5218 26.9595C66.0207 28.1728 67.3456 29.6637 69.5477 29.6637C71.8875 29.6637 73.8661 28.2767 73.8661 24.8967V16.6806H71.9735V17.4258ZM75.2423 25.2779H77.238V11.827H75.2423V25.2779ZM80.1801 20.8406C80.1284 19.0724 81.5392 18.1713 82.5542 18.1713C83.3461 18.1713 84.0168 18.5697 84.24 19.1422L80.1801 20.8406ZM86.3737 19.3153C85.9956 18.2923 84.8423 16.4032 82.4853 16.4032C80.1455 16.4032 78.2016 18.2579 78.2016 20.9792C78.2016 23.5447 80.1284 25.5553 82.7089 25.5553C84.791 25.5553 85.9956 24.2726 86.4944 23.5274L84.9459 22.4871C84.4301 23.25 83.7242 23.7527 82.7089 23.7527C81.694 23.7527 80.9715 23.2845 80.5067 22.3661L86.5798 19.8352L86.3737 19.3153ZM37.9884 17.8073V19.7486H42.5991C42.4615 20.8406 42.1001 21.6378 41.5495 22.1926C40.8788 22.8688 39.8293 23.614 37.9883 23.614C35.1495 23.614 32.9303 21.3087 32.9303 18.4486C32.9303 15.5886 35.1495 13.283 37.9884 13.283C39.5197 13.283 40.6376 13.8898 41.4636 14.6698L42.8227 13.3006C41.6701 12.191 40.1387 11.3417 37.9884 11.3417C34.1 11.3417 30.8312 14.5312 30.8312 18.4486C30.8312 22.3661 34.1 25.5553 37.9884 25.5553C40.0875 25.5553 41.6701 24.8623 42.9087 23.5619C44.1819 22.2792 44.5777 20.4766 44.5777 19.0207C44.5777 18.5697 44.5435 18.154 44.4742 17.8073H37.9884ZM49.8197 23.7527C48.443 23.7527 47.2558 22.6086 47.2558 20.9792C47.2558 19.3325 48.443 18.2058 49.8197 18.2058C51.1958 18.2058 52.383 19.3325 52.383 20.9792C52.383 22.6087 51.1958 23.7527 49.8197 23.7527ZM49.8197 16.4032C47.3075 16.4032 45.2601 18.3272 45.2601 20.9792C45.2601 23.614 47.3075 25.5553 49.8197 25.5553C52.3313 25.5553 54.3787 23.614 54.3787 20.9792C54.3787 18.3272 52.3313 16.4032 49.8197 16.4032ZM59.7654 23.7527C58.3893 23.7527 57.202 22.6086 57.202 20.9792C57.202 19.3325 58.3893 18.2058 59.7654 18.2058C61.1416 18.2058 62.3288 19.3325 62.3288 20.9792C62.3288 22.6087 61.1416 23.7527 59.7654 23.7527H59.7654ZM59.7654 16.4032C57.2534 16.4032 55.2064 18.3272 55.2064 20.9792C55.2064 23.614 57.2534 25.5553 59.7654 25.5553C62.2771 25.5553 64.3246 23.614 64.3246 20.9792C64.3246 18.3272 62.2771 16.4032 59.7654 16.4032H59.7654Z" fill="white"/>
<path d="M0.440974 4.26809C0.164833 4.51814 0 4.93521 0 5.48883V5.36368V23.6325V23.5122C0 24.0235 0.141386 24.4183 0.38082 24.6726L0.441937 24.7313V24.7316C0.635736 24.9071 0.884245 25.0003 1.16905 25C1.44734 25 1.76045 24.911 2.0909 24.7229L14.0349 17.9118L18.1375 15.572C18.6586 15.2749 18.9511 14.8917 19 14.5013V14.4997C18.9511 14.1084 18.6586 13.7255 18.1376 13.4283L14.0345 11.0888L2.09093 4.27774C1.75978 4.08938 1.44645 4 1.16742 4C0.882948 4 0.634773 4.0929 0.441048 4.26809H0.440974Z" fill="#00C1FF"/>
<path d="M0.415544 25L0.358046 24.9397C0.132931 24.6788 0 24.2736 0 23.7489V23.8724V5.12897V5.25276C0 4.68462 0.154976 4.25661 0.414603 4L10 14.5003L0.415544 25Z" fill="url(#paint0_linear_134023_90)"/>
<path d="M13.6573 18L10 14.4997L13.657 11L18.072 13.4002C18.6326 13.705 18.9474 14.0979 19 14.4994V14.501C18.9474 14.9015 18.6326 15.2947 18.072 15.5995L13.6573 18" fill="url(#paint1_linear_134023_90)"/>
<path d="M0.748817 25C0.455517 25.0002 0.199565 24.9115 0 24.7443V24.7441L10.4994 15L14 18.2493L1.69827 24.7361C1.35793 24.9152 1.03544 25 0.748817 25Z" fill="url(#paint2_linear_134023_90)"/>
<path d="M10.4999 15L0 4.28085C0.199593 4.09733 0.455188 4 0.74813 4C1.0355 4 1.35824 4.09359 1.69925 4.29096L14 11.4264L10.4999 15" fill="url(#paint3_linear_134023_90)"/>
<path d="M0.803968 25C0.513607 25 0.259882 24.9095 0.0622795 24.7391L0.0619396 24.7394C0.0611265 24.7386 0.0602556 24.7379 0.0593336 24.7372L0.00528752 24.6867C0.00358796 24.6852 0.0020017 24.6833 0 24.6815L0.0623172 24.6219C0.259919 24.7923 0.513267 24.8828 0.803703 24.8825C1.08742 24.8825 1.40667 24.7961 1.7436 24.6135L13.922 18L14 18.0746L13.921 18.1175L1.74356 24.7306C1.43651 24.897 1.14445 24.9837 0.880637 24.9982C0.8551 24.9994 0.829536 25 0.803968 25" fill="url(#paint4_linear_134023_90)"/>
<path d="M14.0771 18L14 17.9339L18.1315 15.9211C18.6562 15.6656 18.9508 15.3358 19 15C19 15.1232 18.9679 15.2465 18.9042 15.3664C18.7757 15.6081 18.5181 15.8365 18.1315 16.0249L14.0771 18" fill="url(#paint5_linear_134023_90)"/>
<path d="M19 15C18.9508 14.5512 18.6562 14.112 18.1316 13.7712L14 11.0881L14.0771 11H14.0774L18.1316 13.6332C18.71 14.0092 18.9997 14.5045 19 15" fill="url(#paint6_linear_134023_90)"/>
<path d="M13.9216 11L1.7436 4.38679C1.40599 4.2039 1.08651 4.11716 0.802004 4.11716C0.511946 4.11716 0.2589 4.20736 0.0613353 4.37745L0 4.31857C0.0191545 4.29919 0.0390595 4.2805 0.0596735 4.26253C0.0603155 4.26188 0.0613353 4.26123 0.0619773 4.26062C0.257993 4.09182 0.508358 4.00162 0.79581 4H0.802004C1.08651 4 1.40599 4.08678 1.7436 4.26974L14 10.9252L13.9997 10.9254L13.9216 11" fill="url(#paint7_linear_134023_90)"/>
<defs>
<linearGradient id="paint0_linear_134023_90" x1="6.12565" y1="4.93087" x2="-2.87408" y2="13.1727" gradientUnits="userSpaceOnUse">
<stop stop-color="#00A0FF"/>
<stop offset="0.00657" stop-color="#00A1FF"/>
<stop offset="0.2601" stop-color="#00BEFF"/>
<stop offset="0.5122" stop-color="#00D2FF"/>
<stop offset="0.7604" stop-color="#00DFFF"/>
<stop offset="1" stop-color="#00E3FF"/>
</linearGradient>
<linearGradient id="paint1_linear_134023_90" x1="19.6831" y1="14.4392" x2="-1.74177" y2="14.4392" gradientUnits="userSpaceOnUse">
<stop stop-color="#FFE000"/>
<stop offset="0.4087" stop-color="#FFBD00"/>
<stop offset="0.7754" stop-color="#FFA500"/>
<stop offset="1" stop-color="#FF9C00"/>
</linearGradient>
<linearGradient id="paint2_linear_134023_90" x1="12.1415" y1="18.0893" x2="-2.03147" y2="33.2984" gradientUnits="userSpaceOnUse">
<stop stop-color="#FF3A44"/>
<stop offset="1" stop-color="#C31162"/>
</linearGradient>
<linearGradient id="paint3_linear_134023_90" x1="-2.70612" y1="2.69169" x2="4.25745" y2="9.49514" gradientUnits="userSpaceOnUse">
<stop stop-color="#32A071"/>
<stop offset="0.0685" stop-color="#2DA771"/>
<stop offset="0.4762" stop-color="#15CF74"/>
<stop offset="0.8009" stop-color="#06E775"/>
<stop offset="1" stop-color="#00F076"/>
</linearGradient>
<linearGradient id="paint4_linear_134023_90" x1="12.0745" y1="20.1348" x2="0.487338" y2="32.2975" gradientUnits="userSpaceOnUse">
<stop stop-color="#CC2E36"/>
<stop offset="1" stop-color="#9C0E4E"/>
</linearGradient>
<linearGradient id="paint5_linear_134023_90" x1="19.6393" y1="14.9994" x2="-0.411271" y2="14.9994" gradientUnits="userSpaceOnUse">
<stop stop-color="#E0C500"/>
<stop offset="0.4087" stop-color="#E0A600"/>
<stop offset="0.7754" stop-color="#E09100"/>
<stop offset="1" stop-color="#E08900"/>
</linearGradient>
<linearGradient id="paint6_linear_134023_90" x1="19.6393" y1="15.0009" x2="-0.409905" y2="15.0009" gradientUnits="userSpaceOnUse">
<stop stop-color="#FFE840"/>
<stop offset="0.4087" stop-color="#FFCE40"/>
<stop offset="0.7754" stop-color="#FFBC40"/>
<stop offset="1" stop-color="#FFB540"/>
</linearGradient>
<linearGradient id="paint7_linear_134023_90" x1="-2.63298" y1="5.00558" x2="2.54094" y2="10.4368" gradientUnits="userSpaceOnUse">
<stop stop-color="#65B895"/>
<stop offset="0.0685" stop-color="#62BD95"/>
<stop offset="0.4762" stop-color="#50DB97"/>
<stop offset="0.8009" stop-color="#44ED98"/>
<stop offset="1" stop-color="#40F498"/>
</linearGradient>
</defs>
</svg>
